<svg width="20" height="20" viewBox="0 0 20 20" fill="none" xmlns="http://www.w3.org/2000/svg">
<mask id="path-1-inside-1_7_33" fill="white">
<ellipse cx="9.84441" cy="9.84442" rx="9.84441" ry="9.84442"/>
</mask>
<path d="M4.68881 9.84442C4.68881 6.9971 6.99703 4.68884 9.84441 4.68884V34.6888C23.5656 34.6888 34.6888 23.5656 34.6888 9.84442H4.68881ZM9.84441 4.68884C12.6918 4.68884 15 6.9971 15 9.84442H-15C-15 23.5656 -3.8768 34.6888 9.84441 34.6888V4.68884ZM15 9.84442C15 12.6917 12.6918 15 9.84441 15V-15C-3.8768 -15 -15 -3.87675 -15 9.84442H15ZM9.84441 15C6.99703 15 4.68881 12.6917 4.68881 9.84442H34.6888C34.6888 -3.87675 23.5656 -15 9.84441 -15V15Z" fill="#82B5F8" mask="url(#path-1-inside-1_7_33)"/>
</svg>
